<svg xmlns="http://www.w3.org/2000/svg" viewBox="0 0 200 200" width="200" height="200">
  <polygon points="58,180 138,32 200,180" fill="#2a8b85"/>
  <polygon points="20,180 72,60 122,180" fill="#c97447"/>

  <g fill="#ffffff">
    <rect x="55" y="108" width="22" height="10" rx="2"/>
    <rect x="57" y="117" width="2.5" height="11"/>
    <rect x="62" y="117" width="2.5" height="11"/>
    <rect x="69" y="117" width="2.5" height="11"/>
    <rect x="73.5" y="117" width="2.5" height="11"/>
    <rect x="71" y="98" width="5" height="12" rx="1"/>
    <ellipse cx="74" cy="96" rx="4" ry="3.5"/>
    <polygon points="71.5,94 72.5,90 73,93"/>
    <polygon points="75,94 76,90 76.5,93"/>
  </g>

  <g fill="#e8c58e">
    <circle cx="12"  cy="178" r="3.2"/>
    <circle cx="22"  cy="172" r="3.2"/>
    <circle cx="32"  cy="164" r="3.2"/>
    <circle cx="42"  cy="156" r="3.2"/>
    <circle cx="52"  cy="146" r="3.2"/>
    <circle cx="62"  cy="135" r="3.2"/>
    <circle cx="74"  cy="125" r="3.2"/>
    <circle cx="86"  cy="113" r="3.2"/>
    <circle cx="96"  cy="100" r="3.2"/>
    <circle cx="106" cy="86"  r="3.2"/>
    <circle cx="116" cy="72"  r="3.2"/>
    <circle cx="126" cy="56"  r="3.2"/>
    <circle cx="134" cy="42"  r="3.2"/>
    <circle cx="138" cy="30"  r="3.6"/>
  </g>
</svg>
