<svg xmlns="http://www.w3.org/2000/svg" width="200" height="200" viewBox="0 0 200 200"><path fill="#2a8b85" d="m58 180 80-148 62 148Z"/><path fill="#c97447" d="M20 180 72 60l50 120Z"/><g fill="#fff"><rect width="22" height="10" x="55" y="108" rx="2"/><path d="M57 117h2.5v11H57ZM62 117h2.5v11H62ZM69 117h2.5v11H69ZM73.5 117H76v11h-2.5Z"/><rect width="5" height="12" x="71" y="98" rx="1"/><ellipse cx="74" cy="96" rx="4" ry="3.5"/><path d="m71.5 94 1-4 .5 3ZM75 94l1-4 .5 3Z"/></g><g fill="#e8c58e"><circle cx="12" cy="178" r="3.2"/><circle cx="22" cy="172" r="3.2"/><circle cx="32" cy="164" r="3.2"/><circle cx="42" cy="156" r="3.2"/><circle cx="52" cy="146" r="3.2"/><circle cx="62" cy="135" r="3.2"/><circle cx="74" cy="125" r="3.2"/><circle cx="86" cy="113" r="3.2"/><circle cx="96" cy="100" r="3.2"/><circle cx="106" cy="86" r="3.2"/><circle cx="116" cy="72" r="3.2"/><circle cx="126" cy="56" r="3.2"/><circle cx="134" cy="42" r="3.2"/><circle cx="138" cy="30" r="3.6"/></g></svg>